<svg width="104" height="77" viewBox="0 0 104 77" fill="none" xmlns="http://www.w3.org/2000/svg">
<circle cx="31" cy="36" r="30.5" fill="black" stroke="white"/>
<circle cx="31" cy="36" r="25.5" stroke="white" stroke-dasharray="8 8"/>
<path d="M34.9293 32.9092C36.8546 32.8995 38.7898 32.9574 41 32.9863C39.1631 34.9046 37.6012 36.6301 35.8428 38.2689C36.4617 40.3415 36.8743 42.3947 37.4342 44.795C35.6169 44.0528 33.9764 43.4551 32.4145 42.7032C31.4715 42.2501 30.8035 42.4044 29.9685 42.9731C28.4361 44.0046 26.8251 44.93 25.0864 46C25.4106 44.0624 25.6562 42.1826 26.0687 40.3415C26.2554 39.4932 26.0098 39.0594 25.3811 38.587C23.9568 37.517 22.5914 36.3699 21 35.0974C23.5246 34.5287 25.7053 34.0081 27.9744 33.584C28.8094 31.4343 29.7623 29.3907 30.8134 27C31.8153 28.8508 32.7289 30.4607 33.554 32.1091C33.8586 32.726 34.2515 32.9188 34.9293 32.9092Z" fill="#FFE082"/>
<circle cx="65.5" cy="38.5" r="38" fill="black" stroke="white"/>
<circle cx="65.4998" cy="38.4998" r="31.5833" stroke="white" stroke-dasharray="8 8"/>
<path d="M72.1279 30.7017C75.1135 30.6865 78.1143 30.7776 81.5417 30.8232C78.6932 33.8465 76.2712 36.566 73.5445 39.1487C74.5042 42.4151 75.144 45.6511 76.0122 49.434C73.1942 48.2642 70.6503 47.3223 68.2283 46.1373C66.766 45.4232 65.7301 45.6663 64.4353 46.5627C62.059 48.1883 59.5608 49.6467 56.8646 51.3331C57.3673 48.2794 57.7481 45.3169 58.3879 42.4151C58.6773 41.0782 58.2965 40.3945 57.3216 39.6501C55.1129 37.9637 52.9955 36.1558 50.5278 34.1504C54.4427 33.254 57.8243 32.4336 61.3431 31.7652C62.6378 28.3772 64.1154 25.1564 65.7453 21.3887C67.2991 24.3056 68.7158 26.8428 69.9953 29.4407C70.4675 30.413 71.0768 30.7169 72.1279 30.7017Z" fill="#FFE082"/>
</svg>
