<svg width="384" height="68" viewBox="0 0 384 68" fill="none" xmlns="http://www.w3.org/2000/svg">
<path d="M21.7953 40.4768H13.107V52.1045H5.8634V21.8945H13.107V33.3627H21.7953V21.8945H28.9991V52.1144H21.7953V40.4768Z" fill="white"/>
<path d="M29.457 52.5621H21.3366V40.9345H13.5649V52.5621H5.40462V21.4355H13.5649V32.9038H21.3366V21.4355H29.457V52.5621ZM22.2532 51.6554H28.5403V22.3522H22.2532V33.8204H12.6482V22.3522H6.32128V51.6554H12.6482V40.0178H22.2532V51.6554Z" fill="white"/>
<path d="M46.5048 52.5229C44.791 52.5229 43.2466 52.2738 41.8517 51.7757C40.4568 51.2775 39.2711 50.5501 38.2947 49.5836C37.3182 48.6172 36.561 47.4414 36.023 46.0465C35.4849 44.6516 35.2159 43.0475 35.2159 41.2241V21.8945H42.4595V41.4333C42.4595 42.8183 42.8282 43.9143 43.5555 44.7214C44.2829 45.5384 45.2693 45.9369 46.5147 45.9369C47.7602 45.9369 48.7466 45.5284 49.4939 44.7214C50.2412 43.9043 50.6098 42.8083 50.6098 41.4333V21.8945H57.8135V41.2241C57.8135 43.0475 57.5445 44.6516 57.0065 46.0465C56.4685 47.4414 55.7112 48.6172 54.7348 49.5836C53.7583 50.5501 52.5726 51.2775 51.1777 51.7757C49.7728 52.2738 48.2185 52.5229 46.5048 52.5229Z" fill="white"/>
<path d="M46.5049 52.9806C44.7513 52.9806 43.1272 52.7215 41.6924 52.2134C40.2377 51.6953 38.9923 50.9181 37.966 49.9118C36.9497 48.9055 36.1426 47.66 35.5847 46.2153C35.0267 44.7705 34.7477 43.0966 34.7477 41.2234V21.4355H42.908V41.4327C42.908 42.6881 43.2368 43.6944 43.8844 44.4218C44.5321 45.1392 45.389 45.4879 46.5049 45.4879C47.6208 45.4879 48.4877 45.1392 49.1453 44.4118C49.8029 43.6845 50.1416 42.6881 50.1416 41.4327V21.4355H58.262V41.2234C58.262 43.0966 57.9831 44.7705 57.4251 46.2153C56.8671 47.66 56.06 48.9055 55.0438 49.9118C54.0175 50.9181 52.7621 51.6953 51.3173 52.2134C49.8826 52.7215 48.2685 52.9806 46.5049 52.9806ZM35.6644 22.3522V41.2234C35.6644 42.9771 35.9234 44.5414 36.4416 45.8765C36.9497 47.2017 37.687 48.3375 38.6136 49.2542C39.5403 50.1708 40.6861 50.8683 42.0013 51.3466C43.3364 51.8248 44.8509 52.0639 46.5049 52.0639C48.1589 52.0639 49.6733 51.8248 51.0085 51.3466C52.3336 50.8783 53.4795 50.1708 54.3961 49.2542C55.3227 48.3375 56.0501 47.2017 56.5682 45.8765C57.0863 44.5414 57.3454 42.9771 57.3454 41.2234V22.3522H51.0583V41.4327C51.0583 42.9272 50.6398 44.1328 49.8228 45.0296C48.9958 45.9363 47.8799 46.3946 46.5049 46.3946C45.1299 46.3946 44.0239 45.9363 43.2069 45.0196C42.3998 44.1229 41.9913 42.9173 41.9913 41.4227V22.3522H35.6644Z" fill="white"/>
<path d="M71.2245 28.64H63.6919V21.8945H85.7117V28.64H78.2588V52.1045H71.2245V28.64Z" fill="white"/>
<path d="M78.7175 52.5621H70.7665V29.0976H63.2339V21.4355H86.1703V29.0976H78.7175V52.5621ZM71.6831 51.6554H77.8008V28.181H85.2537V22.3522H64.1506V28.181H71.6831V51.6554Z" fill="white"/>
<path d="M91.0424 31.1209L92.7362 21.8945H99.5215L96.373 31.1209H91.0424Z" fill="white"/>
<path d="M96.7119 31.5786H90.4945L92.3577 21.4355H100.169L96.7119 31.5786ZM91.6005 30.6619H96.0642L98.8939 22.3522H93.1249L91.6005 30.6619Z" fill="white"/>
<path d="M105.161 21.8945H112.404V45.1996H122.258V52.1144H105.161V21.8945Z" fill="white"/>
<path d="M122.717 52.5621H104.702V21.4355H112.863V44.7406H122.717V52.5621ZM105.619 51.6554H121.8V45.6573H111.946V22.3522H105.619V51.6554Z" fill="white"/>
<path d="M137.782 21.8945H144.737L155.079 52.1144H147.756L146.311 47.6806H136.168L134.723 52.1144H127.44L137.782 21.8945ZM138.36 41.0946H144.159L141.259 32.2767L138.36 41.0946Z" fill="white"/>
<path d="M155.717 52.5633H147.417L145.972 48.1295H136.497L135.042 52.5633H126.782L137.443 21.4268H145.056L155.717 52.5633ZM148.085 51.6566H154.441L144.408 22.3534H138.111L128.067 51.6566H134.384L135.829 47.2228H146.63L148.085 51.6566ZM144.787 41.5534H137.732L141.259 30.8126L144.787 41.5534ZM138.988 40.6368H143.521L141.259 33.7419L138.988 40.6368Z" fill="white"/>
<path d="M232.986 37.1598L227.336 43.8056V53.0419H224.118V22.9316H227.336V39.5112L241.564 22.9316H245.53L235.257 34.9777L246.855 53.0519H243.139L232.986 37.1598Z" fill="white"/>
<path d="M264.71 22.9316H268.178L279.606 53.0519H276.268L273.339 45.4197H259.599L256.709 53.0519H253.332L264.71 22.9316ZM260.755 42.3608H272.183L266.444 27.2659L260.755 42.3608Z" fill="white"/>
<path d="M290.746 25.9008H281.669V22.9316H303.001V25.9008H293.964V53.0519H290.746V25.9008Z" fill="white"/>
<path d="M311.988 22.9316H315.206V49.9532H328.657V53.0519H311.988V22.9316Z" fill="white"/>
<path d="M348.335 22.9316H351.802L363.23 53.0519H359.892L356.963 45.4197H343.223L340.334 53.0519H336.956L348.335 22.9316ZM344.379 42.3608H355.807L350.068 27.2659L344.379 42.3608Z" fill="white"/>
<path d="M371.232 50.8999C371.232 50.1825 371.471 49.5847 371.949 49.1065C372.428 48.6282 373.025 48.3891 373.743 48.3891C374.49 48.3891 375.098 48.6282 375.576 49.1065C376.054 49.5847 376.293 50.1825 376.293 50.8999C376.293 51.6173 376.054 52.2151 375.576 52.7133C375.098 53.2115 374.48 53.4606 373.743 53.4606C373.005 53.4606 372.398 53.2115 371.929 52.7133C371.471 52.2251 371.232 51.6173 371.232 50.8999ZM372.846 45.6989C372.766 44.7125 372.677 43.477 372.577 42.0024C372.477 40.5277 372.408 38.9734 372.348 37.3194C372.288 35.6654 372.248 34.0015 372.198 32.3276C372.159 30.6537 372.139 29.1293 372.139 27.7443V22.9219H375.357V27.7443C375.357 29.1193 375.337 30.6437 375.297 32.3276C375.257 34.0015 375.207 35.6654 375.158 37.3194C375.098 38.9734 375.028 40.5277 374.928 42.0024C374.829 43.477 374.739 44.7025 374.659 45.6989H372.846Z" fill="white"/>
<path d="M214.452 10.067C214.283 10.4058 214.064 10.9538 213.755 11.442C213.028 12.5778 211.991 12.817 210.417 12.1992C205.963 10.4356 201.39 9.10051 196.637 8.38313C184.83 6.59963 173.262 7.85505 161.944 12.2092C159.453 13.1657 158.705 12.8369 157.769 10.4058C157.53 9.79797 157.321 9.18022 157.091 8.56247C156.454 6.82879 156.773 6.01177 158.586 5.28442C162.213 3.83968 165.919 2.63408 169.725 1.82702C182.917 -0.962818 195.93 -0.634017 208.693 3.3415C210.417 3.87954 212.111 4.53714 213.775 5.22464C215.768 6.05162 215.937 6.58966 215.07 8.67207C214.891 9.08058 214.711 9.47913 214.452 10.067Z" fill="#D92A27"/>
<path d="M196.259 46.4238C200.962 37.1875 205.784 28.0209 210.377 18.7347C211.513 16.4431 211.593 16.6822 209.401 15.626C208.454 15.1677 207.468 14.7692 206.472 14.4404C191.984 9.68769 177.437 9.68768 162.97 15.5065C159.901 16.742 160.011 16.3434 161.366 19.5119C163.957 25.5599 166.637 31.558 169.267 37.586C173.472 47.201 177.677 56.816 181.951 66.6103C182.708 68.344 185.119 68.3639 185.986 66.6501L196.259 46.4238Z" fill="#D92A27"/>
<path d="M383.866 10.2959H223.66V11.6211H383.866V10.2959Z" fill="#D92A27"/>
<path d="M383.866 63.3633H223.66V64.6885H383.866V63.3633Z" fill="#D92A27"/>
<path d="M155.887 63.3633H0.134079V64.6885H155.887V63.3633Z" fill="#D92A27"/>
<path d="M144.737 10.2959H0.134079V11.6211H144.737V10.2959Z" fill="#D92A27"/>
<path d="M184.681 22.098C186.634 22.088 188.597 22.1478 190.839 22.1777C188.976 24.1605 187.392 25.944 185.608 27.6378C186.236 29.78 186.654 31.9023 187.222 34.3832C185.379 33.616 183.715 32.9983 182.131 32.2211C181.174 31.7528 180.497 31.9122 179.65 32.5001C178.095 33.5662 176.461 34.5227 174.698 35.6287C175.027 33.626 175.276 31.6831 175.694 29.78C175.884 28.9032 175.634 28.4548 174.997 27.9666C173.552 26.8606 172.167 25.6749 170.553 24.3597C173.114 23.7719 175.326 23.2338 177.627 22.7954C178.474 20.5735 179.441 18.4612 180.507 15.9902C181.523 17.9033 182.45 19.5672 183.287 21.271C183.595 21.9087 183.994 22.1079 184.681 22.098Z" fill="white"/>
<path d="M185.21 43.4594C186.446 42.7321 187.701 42.0546 189.136 41.2475C188.688 43.1805 188.339 44.8942 187.831 46.6279C189.016 47.7538 190.063 48.9395 191.328 50.3045C189.883 50.4938 188.598 50.723 187.313 50.8027C186.535 50.8525 186.167 51.2112 185.838 51.8887C185.25 53.1342 184.563 54.3398 183.845 55.6849C183.317 54.29 182.759 52.9748 182.331 51.6097C182.131 50.982 181.803 50.7927 181.225 50.723C179.9 50.5536 178.594 50.3145 177.09 50.0753C178.495 48.7601 179.7 47.6043 180.986 46.4884C180.707 44.7746 180.537 43.0808 180.308 41.1279C181.653 41.9649 182.849 42.6723 184.005 43.4495C184.453 43.7384 184.772 43.7085 185.21 43.4594Z" fill="white"/>
</svg>
