<svg width="95" height="78" viewBox="0 0 95 78" fill="none" xmlns="http://www.w3.org/2000/svg">
<rect x="0.5" y="0.5" width="83" height="60" rx="3.5" stroke="white"/>
<rect x="32.5" y="60.5" width="20" height="15" stroke="white"/>
<rect x="24" y="75" width="36" height="1" fill="white"/>
<rect y="48" width="83" height="1" fill="white"/>
<path d="M54.5692 26.0953C54.3057 26.0069 54.0625 25.9194 53.8729 25.8533C53.1767 25.589 51.4739 25.1925 50.1057 24.8621C49.3374 24.6862 48.5702 24.4899 48.402 24.4433C48.135 23.7374 47.9186 23.0161 47.7543 22.2842C47.7084 22.0453 47.6444 21.8095 47.5628 21.5788C47.4432 21.1823 47.2749 20.9617 46.8665 21.0055H46.8422C46.6982 21.0278 44.659 21.4903 41.3479 22.2833C39.1181 22.8119 36.8134 23.3405 36.6695 23.3628C36.4779 23.3852 36.3816 23.4727 34.9181 25.5657C34.4863 26.1827 33.934 26.9757 33.862 27.0641C33.8144 27.0864 33.5022 27.2186 33.1657 27.3721C32.2535 27.7686 30.5306 28.4954 29.063 29.267C27.2995 30.1516 25.6288 31.184 24.0724 32.3512C24.0253 32.4124 24 32.4856 24 32.5606C24 32.6356 24.0253 32.7087 24.0724 32.77C24.1544 32.8566 24.2593 32.9223 24.377 32.961C24.4947 32.9996 24.6212 33.0098 24.7444 32.9905C24.811 32.9891 24.8764 32.9742 24.9359 32.9468C25.2481 32.8807 35.1573 31.052 40.8198 30.193C42.2387 29.9724 44.0347 29.7742 46.1469 29.5536C51.3533 29.0464 56.5861 28.7821 56.8963 28.8091C57.0527 28.8203 57.2098 28.7983 57.3555 28.7449C57.5011 28.6915 57.6315 28.6081 57.7365 28.501C57.9031 28.3228 57.9964 28.0965 58 27.8617C57.9524 27.3768 56.8719 26.9143 54.5692 26.099" fill="#FFE082"/>
<rect x="72.5" y="37.5" width="22" height="39.25" rx="3.5" fill="black" stroke="white"/>
<circle cx="83.5001" cy="71.5001" r="1.15" fill="white"/>
<path d="M89.4864 51.123C89.3702 51.0862 89.2629 51.0497 89.1792 51.0222C88.8721 50.9121 88.1209 50.7469 87.5172 50.6092C87.1783 50.5359 86.8398 50.4541 86.7656 50.4347C86.6478 50.1406 86.5523 49.8401 86.4798 49.5351C86.4596 49.4355 86.4314 49.3373 86.3953 49.2412C86.3426 49.076 86.2684 48.9841 86.0882 49.0023H86.0774C86.0139 49.0116 85.1143 49.2043 83.6535 49.5347C82.6698 49.755 81.653 49.9752 81.5895 49.9845C81.505 49.9938 81.4625 50.0303 80.8168 50.9024C80.6263 51.1595 80.3826 51.4899 80.3509 51.5267C80.3299 51.536 80.1921 51.5911 80.0437 51.6551C79.6413 51.8202 78.8811 52.1231 78.2337 52.4446C77.4557 52.8132 76.7186 53.2434 76.0319 53.7297C76.0112 53.7552 76 53.7857 76 53.8169C76 53.8482 76.0112 53.8786 76.0319 53.9042C76.0681 53.9402 76.1144 53.9676 76.1663 53.9837C76.2182 53.9998 76.274 54.0041 76.3284 53.9961C76.3578 53.9955 76.3866 53.9892 76.4129 53.9778C76.5506 53.9503 80.9223 53.1883 83.4205 52.8304C84.0465 52.7385 84.8388 52.6559 85.7707 52.564C88.0676 52.3527 90.3762 52.2425 90.5131 52.2538C90.5821 52.2584 90.6514 52.2493 90.7156 52.227C90.7799 52.2048 90.8374 52.17 90.8837 52.1254C90.9573 52.0512 90.9984 51.9569 91 51.859C90.979 51.657 90.5023 51.4643 89.4864 51.1246" fill="#FFE082"/>
</svg>
