<svg width="78" height="94" viewBox="0 0 78 94" fill="none" xmlns="http://www.w3.org/2000/svg">
<path d="M75.6679 13.9706C75.4859 14.4205 75.2616 15.1427 74.9166 15.7976C74.103 17.3221 72.8038 17.7327 70.7304 17.1035C64.8631 15.3031 58.8865 14.0621 52.7436 13.6282C37.4827 12.5488 22.8357 15.3263 8.82139 22.0363C5.73707 23.5108 4.74928 23.1667 3.30631 20.1567C2.9392 19.4047 2.60928 18.6369 2.25388 17.8712C1.26348 15.7217 1.58777 14.6458 3.83 13.5328C8.31548 11.3195 12.927 9.40345 17.7063 7.98635C34.2718 3.08421 50.9248 2.18337 67.6299 5.96539C69.886 6.47762 72.1161 7.14559 74.311 7.85477C76.9401 8.70873 77.211 9.37871 76.3153 12.1263C76.1277 12.6663 75.9391 13.1935 75.6679 13.9706Z" stroke="white"/>
<path d="M56.1213 62.252C61.1903 49.9781 66.4191 37.781 71.343 25.4546C72.5611 22.4124 72.6872 22.7097 69.7804 21.5833C68.5249 21.094 67.2247 20.6851 65.9187 20.3663C46.9333 15.7666 28.3539 17.2431 10.467 26.1433C6.67287 28.0328 6.77242 27.5126 8.8247 31.4218C12.7472 38.8833 16.7792 46.2721 20.7506 53.7041C27.0967 65.5575 33.4428 77.4109 39.8962 89.4863C41.0393 91.6237 44.121 91.4044 45.0542 89.1277L56.1213 62.252Z" stroke="white"/>
<path d="M38.8726 32.4537C41.3658 32.2427 43.8788 32.1198 46.7451 31.9305C44.5667 34.652 42.7243 37.0907 40.6184 39.435C41.6375 42.1073 42.3874 44.7754 43.3646 47.8864C40.9324 47.0937 38.7446 46.4736 36.6423 45.6418C35.3731 45.1408 34.524 45.4131 33.5019 46.2499C31.625 47.7693 29.6351 49.1568 27.4949 50.7484C27.7115 48.1571 27.8325 45.6504 28.1738 43.1773C28.3266 42.0382 27.963 41.4909 27.099 40.932C25.1415 39.6661 23.2523 38.2924 21.0573 36.7764C24.2681 35.7657 27.0385 34.854 29.9336 34.0605C30.7898 31.1367 31.8098 28.3408 32.9206 25.0766C34.4128 27.4168 35.7652 29.4479 37.0071 31.539C37.4663 32.3221 37.9955 32.5362 38.8726 32.4537Z" fill="#FFE082"/>
<path d="M41.7152 59.6838C43.2193 58.6295 44.754 57.6367 46.5046 56.4603C46.1281 58.9746 45.8567 61.1988 45.3836 63.4646C47.0122 64.7823 48.4688 66.1904 50.2235 67.8054C48.3975 68.1938 46.7791 68.617 45.1456 68.8492C44.1581 68.9917 43.7236 69.4873 43.3725 70.386C42.7481 72.0364 41.9924 73.6459 41.2127 75.4367C40.3966 73.7087 39.5505 72.0856 38.8647 70.3857C38.5465 69.6042 38.1074 69.3958 37.3622 69.3653C35.6525 69.2835 33.9612 69.1106 32.0153 68.9579C33.6762 67.1355 35.0986 65.537 36.6269 63.9812C36.0967 61.8207 35.7084 59.6746 35.2175 57.2036C37.0204 58.136 38.6193 58.9182 40.1744 59.7935C40.7764 60.117 41.1805 60.0465 41.7152 59.6838Z" fill="#FFE082"/>
</svg>
