<svg width="167" height="45" viewBox="0 0 167 45" fill="none" xmlns="http://www.w3.org/2000/svg">
<path d="M74.6884 17.9939L73.7299 17.7089L74.6884 17.9939ZM167 17.9939L156.476 13.2423L157.623 24.7322L167 17.9939ZM0 36.0141C1.08546 36.0141 2.26704 36.1151 3.53824 36.2999L3.82599 34.3207C2.48658 34.126 1.20571 34.0141 0 34.0141V36.0141ZM10.6474 37.8475C12.8998 38.4473 15.274 39.1443 17.7474 39.8673L18.3086 37.9477C15.8427 37.2268 13.4427 36.5221 11.162 35.9149L10.6474 37.8475ZM24.8895 41.8932C27.2725 42.5319 29.7029 43.1302 32.1485 43.6279L32.5473 41.668C30.1536 41.1809 27.7648 40.5932 25.4073 39.9613L24.8895 41.8932ZM39.5652 44.7649C42.1043 45.0074 44.635 45.0771 47.1215 44.904L46.9826 42.9088C44.6256 43.0729 42.2069 43.0081 39.7553 42.774L39.5652 44.7649ZM54.6147 43.5229C57.0129 42.7632 59.3245 41.6787 61.51 40.1983L60.3884 38.5424C58.3722 39.9081 56.2368 40.9111 54.0108 41.6162L54.6147 43.5229ZM67.1891 35.0547C68.7133 33.2543 70.1288 31.1707 71.4206 28.7732L69.6599 27.8245C68.4281 30.1107 67.0893 32.0772 65.6626 33.7625L67.1891 35.0547ZM74.4698 21.8697C74.8829 20.7246 75.2755 19.5282 75.647 18.2788L73.7299 17.7089C73.3688 18.9235 72.9879 20.0836 72.5885 21.1912L74.4698 21.8697ZM75.647 18.2788C76.0776 16.8303 76.5458 15.499 77.0491 14.2774L75.1999 13.5155C74.6682 14.8061 74.1779 16.202 73.7299 17.7089L75.647 18.2788ZM81.296 7.21555C83.2644 5.02307 85.5088 3.62604 87.9985 2.83474L87.3927 0.92869C84.5634 1.82791 82.0144 3.42165 79.8078 5.87942L81.296 7.21555ZM96.1599 2.09855C98.7573 2.31254 101.53 2.86468 104.458 3.65558L104.98 1.72478C101.977 0.913816 99.0795 0.332308 96.3241 0.1053L96.1599 2.09855ZM112.607 6.25448C115.228 7.18724 117.924 8.21286 120.685 9.2706L121.4 7.40298C118.639 6.34534 115.924 5.3119 113.277 4.37021L112.607 6.25448ZM128.77 12.3368C131.468 13.3329 134.207 14.3017 136.971 15.1875L137.581 13.283C134.854 12.4089 132.144 11.4507 129.463 10.4606L128.77 12.3368ZM145.355 17.5496C148.217 18.2288 151.094 18.7651 153.97 19.0984L154.201 17.1117C151.416 16.7889 148.617 16.2681 145.817 15.6037L145.355 17.5496Z" fill="white"/>
</svg>
